<svg width="260" height="204" viewBox="0 0 260 204" fill="none" xmlns="http://www.w3.org/2000/svg">
<rect x="0.5" y="0.5" width="259" height="203" rx="20.5" fill="#F8E0F2" stroke="black"/>
<path d="M130 142.812C117.469 142.812 105.45 138.249 96.5892 130.127C87.7281 122.004 82.75 110.987 82.75 99.5C82.75 88.0128 87.7281 76.9961 96.5892 68.8734C105.45 60.7508 117.469 56.1875 130 56.1875C142.531 56.1875 154.55 60.7508 163.411 68.8734C172.272 76.9961 177.25 88.0128 177.25 99.5C177.25 110.987 172.272 122.004 163.411 130.127C154.55 138.249 142.531 142.812 130 142.812ZM130 149C144.322 149 158.057 143.785 168.184 134.502C178.311 125.219 184 112.628 184 99.5C184 86.3718 178.311 73.7813 168.184 64.4982C158.057 55.2152 144.322 50 130 50C115.678 50 101.943 55.2152 91.8162 64.4982C81.6893 73.7813 76 86.3718 76 99.5C76 112.628 81.6893 125.219 91.8162 134.502C101.943 143.785 115.678 149 130 149Z" fill="black"/>
<path d="M118.329 81.2778C118.881 81.0172 119.501 80.9013 120.12 80.9427C120.74 80.9842 121.334 81.1815 121.839 81.5129L145.464 96.9816C145.902 97.2678 146.258 97.6456 146.504 98.0837C146.75 98.5217 146.879 99.0073 146.879 99.4999C146.879 99.9926 146.75 100.478 146.504 100.916C146.258 101.354 145.902 101.732 145.464 102.018L121.839 117.487C121.335 117.818 120.74 118.015 120.121 118.057C119.502 118.098 118.883 117.982 118.331 117.722C117.779 117.462 117.316 117.067 116.993 116.581C116.67 116.096 116.499 115.538 116.5 114.969V84.0312C116.499 83.4625 116.67 82.9046 116.992 82.4188C117.315 81.933 117.778 81.5382 118.329 81.2778Z" fill="black"/>
</svg>
