<svg width="60" height="61" viewBox="0 0 60 61" fill="none" xmlns="http://www.w3.org/2000/svg">
<g clip-path="url(#clip0)">
<path d="M15.8585 52.0958L16.8394 52.5863C20.9269 55.0386 25.5045 56.1831 30.0823 56.1831C44.4694 56.1831 56.2406 44.4118 56.2406 30.0247C56.2406 23.1582 53.4612 16.4551 48.5567 11.5503C43.6519 6.64555 37.1121 3.86633 30.0823 3.86633C15.6952 3.86633 3.92369 15.6376 4.08728 30.1883C4.08728 35.0928 5.55869 39.8342 8.01095 43.9213L8.66486 44.9023L6.04923 54.5483L15.8585 52.0958Z" fill="#00E676"/>
<path d="M51.3359 8.93427C45.7772 3.21224 38.0932 0.105835 30.2456 0.105835C13.5698 0.105835 0.163594 13.6754 0.326953 30.1879C0.326953 35.4196 1.79836 40.4879 4.25086 45.0655L0 60.5971L15.8585 56.5098C20.2727 58.9623 25.1773 60.1068 30.0823 60.1068C46.5947 60.1068 60.0009 46.5369 60.0009 30.0247C60.0009 22.0136 56.8945 14.4929 51.3361 8.93427H51.3359ZM30.2456 55.0386C25.8314 55.0386 21.4172 53.8944 17.6569 51.6055L16.676 51.115L7.19367 53.5672L9.64594 44.2485L8.99203 43.2674C1.79836 31.6597 5.23172 16.2913 17.003 9.09763C28.7742 1.90419 43.9788 5.33755 51.1725 17.1088C58.3659 28.8801 54.9326 44.0847 43.1616 51.2783C39.401 53.7306 34.8234 55.0384 30.2456 55.0384V55.0386ZM44.6327 36.8915L42.8344 36.074C42.8344 36.074 40.2188 34.9295 38.5837 34.112C38.4202 34.112 38.2568 33.9484 38.0932 33.9484C37.6027 33.9484 37.2757 34.112 36.9487 34.2756C36.9487 34.2756 36.7854 34.439 34.4965 37.0548C34.3329 37.3818 34.0059 37.5454 33.679 37.5454H33.5154C33.352 37.5454 33.0251 37.3818 32.8615 37.2184L32.044 36.8915C30.2456 36.074 28.6109 35.0929 27.3028 33.785C26.9759 33.4581 26.4853 33.1311 26.1584 32.8042C25.0139 31.6597 23.8695 30.3517 23.0522 28.8803L22.8886 28.5533C22.7252 28.3897 22.7252 28.2264 22.5616 27.8994C22.5616 27.5725 22.5616 27.2455 22.7252 27.0819C22.7252 27.0819 23.3791 26.2644 23.8695 25.7741C24.1966 25.4469 24.36 24.9566 24.687 24.6297C25.0139 24.1391 25.1775 23.4852 25.0139 22.9947C24.8505 22.1772 22.8886 17.7629 22.3983 16.7821C22.0711 16.2915 21.7444 16.1282 21.2538 15.9646H19.4555C19.1283 15.9646 18.8016 16.1282 18.4744 16.1282L18.3108 16.2915C17.9838 16.4551 17.6569 16.7821 17.3299 16.9454C17.003 17.2726 16.8394 17.5993 16.5124 17.9265C15.368 19.3979 14.7141 21.1963 14.7141 22.9947C14.7141 24.3025 15.041 25.6105 15.5316 26.755L15.6952 27.2455C17.1666 30.3517 19.1283 33.1311 21.7444 35.5834L22.3983 36.2373C22.8886 36.7279 23.3791 37.0548 23.7061 37.5451C27.1395 40.4882 31.0631 42.6135 35.4773 43.7579C35.9679 43.9213 36.6218 43.9213 37.1123 44.0849H38.7471C39.5646 44.0849 40.5455 43.7579 41.1996 43.431C41.6899 43.104 42.0169 43.104 42.3438 42.7771L42.671 42.4499C42.998 42.1229 43.3249 41.9596 43.6519 41.6326C43.9788 41.3057 44.3058 40.9787 44.4694 40.6515C44.7963 39.9976 44.9597 39.1801 45.1233 38.3629V37.2184C45.1233 37.2184 44.9597 37.0548 44.6327 36.8915Z" fill="white"/>
</g>
<defs>
<clipPath id="clip0">
<rect width="60" height="60.7031" fill="white" transform="translate(0 0.105835)"/>
</clipPath>
</defs>
</svg>
