<svg width="60" height="50" viewBox="0 0 60 50" fill="none" xmlns="http://www.w3.org/2000/svg">
<path d="M60 5.96481C57.7922 6.9438 55.4198 7.60544 52.9298 7.9031C55.4716 6.37966 57.4233 3.96724 58.3423 1.09286C55.926 2.52673 53.2824 3.53699 50.5256 4.07997C48.2801 1.68771 45.0811 0.192627 41.5404 0.192627C34.7421 0.192627 29.2303 5.70419 29.2303 12.502C29.2303 13.4669 29.3393 14.4063 29.5491 15.3075C19.3186 14.794 10.2483 9.89341 4.1768 2.44591C3.11742 4.26396 2.51039 6.37872 2.51039 8.63435C2.51039 12.9051 4.68375 16.6727 7.98656 18.8803C6.03176 18.8191 4.11996 18.2911 2.41078 17.3404C2.41008 17.392 2.41008 17.4436 2.41008 17.4954C2.41008 23.4595 6.6532 28.4348 12.2843 29.5657C10.4716 30.0587 8.57022 30.1308 6.72539 29.7766C8.29172 34.6671 12.8379 38.2258 18.2243 38.3254C14.0114 41.6268 8.70352 43.5949 2.93648 43.5949C1.94273 43.5949 0.963047 43.5365 0 43.4229C5.44758 46.9155 11.918 48.9534 18.8695 48.9534C41.5118 48.9534 53.8931 30.1961 53.8931 13.9296C53.8931 13.3957 53.8814 12.8648 53.8575 12.337C56.2674 10.5949 58.3475 8.43704 60 5.96481Z" fill="#55ACEE"/>
</svg>
