<svg width="60" height="58" viewBox="0 0 60 58" fill="none" xmlns="http://www.w3.org/2000/svg">
<path d="M30.0034 0.278567C13.4264 0.271943 0 13.5332 0 29.9011C0 42.8444 8.39906 53.8468 20.0961 57.8875C21.6713 58.2783 21.43 57.1721 21.43 56.417V51.2834C12.3338 52.3366 11.9651 46.3882 11.3552 45.3946C10.1218 43.3147 7.2059 42.7848 8.07731 41.7912C10.1486 40.7379 12.2601 42.0561 14.7067 45.6265C16.4764 48.2164 19.9285 47.7793 21.678 47.3487C22.0601 45.7921 22.8779 44.401 24.004 43.3213C14.5794 41.6521 10.6513 35.9687 10.6513 29.2122C10.6513 25.9333 11.7439 22.9194 13.889 20.4884C12.5215 16.4809 14.0163 13.0496 14.2174 12.5396C18.1119 12.1951 22.1607 15.2952 22.4757 15.5403C24.6877 14.9507 27.2148 14.6394 30.0436 14.6394C32.8857 14.6394 35.4195 14.964 37.6517 15.5601C38.4091 14.9905 42.1629 12.3276 45.7826 12.6522C45.977 13.1622 47.4383 16.514 46.1513 20.4685C48.3231 22.9061 49.4291 25.9466 49.4291 29.2321C49.4291 36.0018 45.4743 41.6918 36.0228 43.3346C36.8323 44.1213 37.4751 45.0595 37.9136 46.0945C38.3521 47.1295 38.5775 48.2404 38.5767 49.3624V56.8144C38.6303 57.4105 38.5767 58.0001 39.5822 58.0001C51.4535 54.0456 60 42.9636 60 29.9077C60 13.5332 46.5669 0.278567 30.0034 0.278567Z" fill="white"/>
</svg>
